<?xml version="1.0" encoding="utf-8"?>
<svg version="1.2" baseProfile="tiny" id="Layer_1" xmlns="http://www.w3.org/2000/svg" xmlns:xlink="http://www.w3.org/1999/xlink"
	 x="0px" y="0px" width="235px" height="243.818px" viewBox="9.872 9.786 235 243.818" overflow="auto" xml:space="preserve">
<image display="none" width="256" height="256" xlink:href="4C05DE87B6126CEF.jpeg"  transform="matrix(1 0 0 1 -7.8398 -6.5959)">
</image>
<g>
	<path fill="#003300" d="M100.181,9.868C69.26,8.283,35.991,7.052,5.69,10.954c-0.055-0.07-0.07-0.136-0.099-0.204
		C3.589,14.478,3.27,26.224,2.915,29.98c-0.856,9.117,0.324,16.773,1.651,25.514c1.176,7.747,3.48,14.738,3.472,22.812
		c-0.009,8.088-0.343,16.312,0.085,24.363c16.603,0.869,33.355-0.108,50.026,0.625c6.439,0.284,12.878,0.309,19.427,0.544
		c6.403,0.231,14.82-0.705,20.91,1.033c1.159-17.948-0.9-35.97,0.669-54.017c0.798-9.171,0.398-18.389-0.028-27.468
		C98.92,18.982,98.646,13.946,100.181,9.868z M94.961,92.688c-0.134,0.155-0.273,0.309-0.418,0.456
		c-3.187,3.231-9.213,7.066-14.004,6.294c-6.665-1.077-15.099-10.141-13.991-17.022c0.502-3.114,1.434-9.121-3.007-10.008
		c-7.472-1.493-5.938,6.573-7.83,10.783c-2.083,4.633-7.478,11.383-12.875,12.092c-4.957,0.651-12.381-1.068-16.941-2.881
		C18.129,89.313,13.201,82.113,11.949,74c-0.469-3.041-0.127-6.349,0.851-9c2.561-6.94,8.673-13.626,16.657-12.601
		c7.25,0.932,20.779,8.645,25.432-1.977c2.192-5.005-2.232-8.75-3.681-12.935c-1.233-3.564,0.107-8.395,2.081-11.535
		c4.053-6.45,11.463-7.88,18.521-7.818c7.72,0.068,13.213,4.432,15.468,12.197c0.667,2.297,1.352,6.264,0.618,8.6
		c-0.734,2.337-2.582,3.142-4.599,4.713c-2.448,1.909-4.446,3.67-5.74,6.545c-1.726,3.834-2.982,9.119,0.485,12.329
		c2.747,2.542,6.922,2.157,10.195,3.579c4.037,1.752,8.438,6.875,9.097,11.222C98.078,82.223,98.284,88.801,94.961,92.688z"/>
	<path fill="#003300" d="M6.371,9.786C5.682,10.056,5.44,10.38,5.592,10.75C5.828,10.31,6.086,9.976,6.371,9.786z"/>
</g>
<path fill="#003300" d="M109.799,9.318v92.278h24.007V9.318H109.799z M125.71,100.562c-1.896-2.242-2.641-21.138-4.827-12.406
	c-0.485,1.937-0.483,5.011-0.997,6.987c-0.599,2.312-1.775,3.628-2.628,3.794c-1.327,0.259-2.75-1.914-3.548-6.601
	c-1.476-8.664-0.832-24.526,1.96-26.223c1.346-0.818,2.946,1.754,3.793-4.065c0.662-4.549,0.056-7.298-0.664-10.047
	c0.002,0.042-0.001,0.091,0.002,0.132l-0.391-1.611c0.129,0.5,0.26,0.991,0.389,1.479c-0.021-0.438,0.012-0.93-0.021-1.389
	c-3.355-5.99-2.22-25.449,0.805-29.677c2.469-3.451,5.973-2.392,7.273,8.735c1.249,10.67-2.159,18.952-0.977,28.834
	c1.115,9.326,5.233,7.105,5.718,19.462C132.019,88.712,128.408,103.753,125.71,100.562z"/>
<path fill="#003300" d="M4.107,157.846v95.758h94.591v-95.758H4.107z M88.458,206.091c-7.176,4.42-19.923-4.05-24.098,5.719
	c-2.768,6.479,2.904,9.117,4.863,14.165c1.971,5.067,1.166,11.782-1.192,16.532c-3.85,7.755-12.089,5.957-19.13,6.709
	c-3.245,0.348-5.31,1.107-8.323-0.653c-3.779-2.21-6.76-6.511-8.709-10.328c-3.896-7.631,0.492-12.357,5.8-18.072
	c3.812-4.104,8.399-9.014,3.607-14.531c-5.754-6.627-12.996-2.844-19.747-2.12c-6.756,0.727-10.339-5.284-12.793-11.78
	c-3.711-9.821,1.528-19.583,9.584-24.482c5.359-3.261,13.318-6.625,19.429-3.979c7.683,3.324,8.749,13.02,14.429,18.398
	c3.917,3.713,12.395,5.87,16.346,2.373c4.23-3.745,3.739-11.637,9.243-12.955C94.156,167.158,101.814,197.866,88.458,206.091z"/>
<path fill="#003300" d="M109.453,118.134v24.938h24.354v-24.938H109.453z M130.58,141.26c-1.166,0.334-2.862,0.122-3.987-0.188
	c-1.993-0.55-1.44-1.092-1.818-2.614c-0.471-1.895-2.087-2.545-3.691-1.295c-1.624,1.271-0.972,3.806-3.18,4.472
	c-3.053,0.918-8.111-1.984-8.293-5.065c-0.105-1.799,0.28-3.806,1.838-4.987c1.949-1.479,3.208-0.564,5.205-0.269
	c1.046,0.154,0.821,0.589,1.604-0.456c0.431-0.576,0.719-2.019,0.483-2.702c-0.726-2.109-3.096-3.297-1.178-5.761
	c1.946-2.499,6.47-3.259,9.353-2.006c2.546,1.105,5.301,4.41,3.062,7.027c-1.012,1.184-3.809,1.126-4.23,2.74
	c-0.67,2.553,4.064,2.417,5.443,3.109c0.959,0.479,2.074,1.504,2.304,2.572C133.873,137.612,132.28,140.771,130.58,141.26z"/>
<path fill="#003300" d="M148.16,9.318v94.588h96.712V9.318H148.16z M235.494,38.382c-0.45,3.61-1.914,8.082-6.005,9.92
	c-5.969,2.683-11.377-3.35-15.494,3.152c-3.881,6.124,1.119,6.771,6.258,8.583c7.303,2.575,10.605,9.631,10.696,16.91
	c0.088,7.18-2.945,14.575-8.353,18.096c-9.433,6.142-23.502,7.748-34.039,3.805c-10.441-3.909-18.227-19.292-11.445-29.775
	c2.109-3.26,5.591-4.432,7.638-7.136c2.2-2.906,0.962-6.582-2.543-7.202c-3.726-0.659-6.742,2.114-10.333,2.341
	c-10.549,0.668-21.598-7.036-20.188-18.723c1.356-11.227,15.174-18.716,25.301-13.731c4.812,2.37,16.775,22.697,23.464,9.538
	c1.95-3.838,0.522-7.985,2.903-11.76c2.277-3.609,6.162-6.692,10.449-7.406C228.326,12.572,237.158,25.019,235.494,38.382z"/>
<g>
	<path fill="#003300" d="M158.431,132.052c5.774-0.592,13.123-0.349,15.904-1.838c4.906-2.629-6.036-4.937-1.893-7.317
		c0.441-0.256,1.062-0.515,1.896-0.771c7.118-2.212,22.214-2.328,32.14-1.046c9.691,1.251,14.24,3.247,4.976,5.032
		c-5.114,0.981-11.341,2.219-8.618,3.839c1.327,0.793,7.768,1.855,11.861,1.812c4.99-0.053,5.847-1.189,9.826-1.666
		c5.369-0.646,12.347,0.054,16.043,0.911c2.011,0.469,3.408,1.008,4.308,1.585V119.01H148.16v15.956
		C149.288,133.746,152.565,132.654,158.431,132.052z"/>
	<path fill="#003300" d="M215.407,140.312c-4.695-0.351-8.816-0.929-11.092-1.854c-2.399-0.974-1.354-1.735-6.822-2.104
		c-17.754-1.198-14.387,4.483-28.824,4.618c-11.111,0.102-18.645-1.83-20.509-3.973v6.07h96.712v-7.021
		C241.123,138.885,229.104,141.324,215.407,140.312z"/>
</g>
<path fill="#003300" d="M132.252,203.78c-0.75,3.896-2.832,4.102-3.26,6.999c-1.263,8.562,2.514,10.122,3.407,13.695
	c2.483,9.942-1.373,20.709-3.568,23.806c-2.147,3.029-5.356,4.841-6.525-5.094c-0.678-5.769,0.867-17.788-1.438-17.606
	c-1.94,0.153-1.215,5.518-0.579,9.551c1.097,6.967,1.136,13.763-1.496,17.197c-1.041,1.36-4.034-0.015-5.007-2.268
	c-1.947-4.513-2.76-17.992-1.903-25.585c0.777-6.887,3.351-8.562,2.957-17.618c-0.445-10.239-3.498-25.967-2.071-36.05
	c1.285-9.092,4.781-9.681,6.991-5.975c1.473,2.474,2.389,4.491,3.078,10.288c0.232,1.962,0.356,6.917,0.803,8.062
	c0.536,1.369,1.013,0.063,1.407-1.267c1.164-3.919,0.656-10.336,2.003-14.341c2.499-7.428,5.671-1.325,6.757,8.689v-19.362h-23.423
	v97.641h23.423v-63.077C133.424,196.019,132.815,200.861,132.252,203.78z"/>
<path fill="#003300" d="M7.004,119.009v21.512h91.694v-21.512H7.004L7.004,119.009z M96.723,131.594
	c-2.92,2.347-11.268,2.957-20.344,2.95c-4.671-0.004-10.038-0.176-14.643,0c-6.419,0.244-11.535,1.742-16.391,2.824
	c-7.533,1.678-17.61,2.943-27.213,1.378c-4.975-0.812-8.383-2.815-7.79-4.223c1.091-2.582,15.666-1.592,18.8-3.697
	c1.661-1.117-7.381-2.422-9.853-3.582c-4.001-1.88-4.683-3.735,1.132-5.308c6.04-1.636,11.656-0.995,18.862,0.053
	c8.548,1.243,12.461,2.947,19.054,4.59c7.883,1.967,12.773,0.206,22.003,0.532C90.61,127.476,100.185,128.816,96.723,131.594z"/>
<path fill="#003300" d="M148.16,156.979v97.492h96.712v-97.492H148.16z M237.149,238.825c-4.819,10.359-19.354,17.214-28.178,7.989
	c-6.256-6.548-9.316-17.021-20.139-14.201c-6.677,1.747-10.169,6.235-17.502,5.922c-5.995-0.259-13.514-2.535-17.298-7.657
	c-6.138-8.302-3.038-17.718,3.808-22.62l1.03-0.515c-0.031-0.039-0.056-0.081-0.085-0.121c1.783-1.115,3.781-1.938,5.917-2.377
	c5.978-1.229,12.465,0.911,18.241,2.423c5.416,1.417,18.052,4.782,15.592-5.924c-0.799-3.472-4.372-5.664-6.512-8.278
	c-5.896-7.207-4.715-19.003,1.424-25.405c4.98-5.196,9.568-6.317,16.756-6.317c3.331,0,4.85,0.257,7.572,1.425
	c7.38,3.161,11.068,8.532,11.852,16.779c1.033,10.881-12.121,20.171-9.8,31.45c1.616,7.87,6.969,4.928,12.325,7.285
	C239.67,221.982,240.304,232.052,237.149,238.825z"/>
</svg>
